<svg
   xmlns:dc="http://purl.org/dc/elements/1.1/"
   xmlns:cc="http://creativecommons.org/ns#"
   xmlns:rdf="http://www.w3.org/1999/02/22-rdf-syntax-ns#"
   xmlns:svg="http://www.w3.org/2000/svg"
   xmlns="http://www.w3.org/2000/svg"
   xmlns:sodipodi="http://sodipodi.sourceforge.net/DTD/sodipodi-0.dtd"
   xmlns:inkscape="http://www.inkscape.org/namespaces/inkscape"
   viewBox="500 0 5400 1080"
   height="100%"
   width="100%"
   xml:space="preserve"
   version="1.1"
   id="digi"
   inkscape:version="0.91 r13725"
   sodipodi:docname="DIGI-TAILS_for_shirt_back.svg"><sodipodi:namedview
     pagecolor="#ffffff"
     bordercolor="#666666"
     borderopacity="1"
     objecttolerance="10"
     gridtolerance="10"
     guidetolerance="10"
     inkscape:pageopacity="0"
     inkscape:pageshadow="2"
     inkscape:window-width="1680"
     inkscape:window-height="1028"
     id="namedview4360"
     showgrid="false"
     inkscape:zoom="0.21333333"
     inkscape:cx="3477.4379"
     inkscape:cy="98.959511"
     inkscape:window-x="-8"
     inkscape:window-y="-8"
     inkscape:window-maximized="1"
     inkscape:current-layer="svg3336" /><metadata
     id="metadata3342"><rdf:RDF><cc:Work
         rdf:about=""><dc:format>image/svg+xml</dc:format><dc:type
           rdf:resource="http://purl.org/dc/dcmitype/StillImage" /><dc:title></dc:title></cc:Work></rdf:RDF></metadata><defs
     id="defs3340"><clipPath
       id="clipPath3350"
       clipPathUnits="userSpaceOnUse"><path
         id="path3352"
         d="M 0,144 432,144 432,0 0,0 0,144 Z" /></clipPath><linearGradient
       id="linearGradient3366"
       spreadMethod="pad"
       gradientTransform="matrix(0,17.803711,17.803711,0,217.75,44.607422)"
       gradientUnits="userSpaceOnUse"
       y2="0"
       x2="1"
       y1="0"
       x1="0"><stop
         id="stop3368"
         offset="0"
         style="stop-opacity:1;stop-color:#373535" /><stop
         id="stop3370"
         offset="0.33252561"
         style="stop-opacity:1;stop-color:#403f40" /><stop
         id="stop3372"
         offset="0.527778"
         style="stop-opacity:1;stop-color:#403f40" /><stop
         id="stop3374"
         offset="0.52963797"
         style="stop-opacity:1;stop-color:#403f40" /><stop
         id="stop3376"
         offset="0.566667"
         style="stop-opacity:1;stop-color:#656668" /><stop
         id="stop3378"
         offset="1"
         style="stop-opacity:1;stop-color:#a4a6a8" /></linearGradient><linearGradient
       id="linearGradient3464"
       spreadMethod="pad"
       gradientTransform="matrix(0,34.038208,34.038208,0,218.2041,69.219727)"
       gradientUnits="userSpaceOnUse"
       y2="0"
       x2="1"
       y1="0"
       x1="0"><stop
         id="stop3466"
         offset="0"
         style="stop-opacity:1;stop-color:#a4a6a8" /><stop
         id="stop3468"
         offset="0.370787"
         style="stop-opacity:1;stop-color:#59595b" /><stop
         id="stop3470"
         offset="0.38223721"
         style="stop-opacity:1;stop-color:#474647" /><stop
         id="stop3472"
         offset="0.427778"
         style="stop-opacity:1;stop-color:#474647" /><stop
         id="stop3474"
         offset="0.55983772"
         style="stop-opacity:1;stop-color:#474647" /><stop
         id="stop3476"
         offset="0.827778"
         style="stop-opacity:1;stop-color:#373535" /><stop
         id="stop3478"
         offset="1"
         style="stop-opacity:1;stop-color:#373535" /></linearGradient></defs><g
     style="fill:#ff0000"
     id="g3356"
     transform="matrix(10.870076,0,0,-12.668177,321.53632,1452.7842)"><g
       style="fill:#ff0000"
       id="g3362"><g
         style="fill:#ff0000"
         id="g3364"><path
           id="path3380"
           style="fill:#ff0000;stroke:none"
           d="m 423.42,44.084 -411.34,0 0,17.805 411.34,0 0,-17.805 z"
           inkscape:connector-curvature="0" /></g></g></g><path
     inkscape:connector-curvature="0"
     d="m 2430.005,435.85895 114.7553,0 0,-130.54555 -114.7553,0 0,130.54555 z m 666.6944,-267.4632 -669.4228,0 0,40.33547 232.2391,0 0,370.43015 194.0092,0 0,-370.43015 243.1745,0 0,-40.33547 z m -950.8491,420.31743 204.9226,0 0,-420.31743 -204.9226,0 0,420.31743 z M 1593.9222,187.51203 c -59.5463,29.4535 -90.1455,100.48397 -90.1672,200.5879 0,45.35207 -8.5875,121.82986 38.2517,162.40602 45.6978,39.57539 119.1578,38.21989 199.455,38.20723 l 322.4174,0 0,-213.3321 -103.831,0 0,178.30458 c -90.6564,1.21615 -204.0096,11.80675 -240.4461,-50.9514 -18.1748,-31.30306 -13.6637,-91.33755 -13.6637,-143.28974 0.011,-44.83268 0.8262,-76.65514 16.4029,-101.89015 45.4478,-73.66545 230.9131,-52.48425 341.5379,-50.95141 l 0,-38.20721 -295.09,0 c -63.5247,0 -129.5496,-3.33174 -174.8669,19.11628 m -379.7896,398.02143 202.1943,0 0,-417.13771 -202.1943,0 0,417.13771 z M 4917.3393,380.35967 c -13.2507,-27.40126 -53.3178,-24.10754 -224.9889,-24.10754 -30.6428,0 -70.3838,5.13062 -92.8957,-6.35942 -5.3045,-2.71099 -31.3928,-25.18434 -30.0666,-60.49054 4.8589,-128.69601 281.7632,-93.71917 357.9407,-92.36368 l 0,-35.01483 -300.5575,0 c -108.0486,0 -138.0718,-6.00472 -201.9226,35.11618 -66.0031,42.5144 -67.0792,160.78449 -26.9252,178.24124 49.6871,21.58657 194.3896,10.50192 288.3722,7.0055 28.9362,-1.07679 90.8739,-2.05224 101.9505,2.4703 23.1641,9.43779 36.4474,17.10204 35.2842,65.01308 -0.1847,7.39822 5.2394,50.01396 -49.2088,81.54505 -28.3708,16.40529 -93.2,12.70618 -142.0827,12.70618 l -265.0233,0 0,35.04018 322.4173,0 c 66.0574,0 133.7019,4.1425 177.5844,-22.28332 35.2734,-21.24453 85.9171,-102.47288 50.122,-176.51838 m -812.4296,116.01516 c -15.6963,-25.39969 -13.6637,-67.01465 -13.6637,-111.45462 l 0,-222.89655 -204.9335,0 c -0.3913,63.88561 -0.6848,147.79961 0.5652,221.57907 1.011,60.7059 7.446,114.45697 26.773,144.6199 25.6426,40.0061 105.005,50.01397 191.9221,52.5476 78.8081,2.31827 163.8338,-1.1148 220.6517,-1.60886 l 0,-35.04018 c -85.917,0.76009 -185.5196,10.26123 -221.3148,-47.74636 m -530.0575,82.78654 202.1834,0 0,-417.13771 -202.1834,0 0,417.13771 z M 3249.6957,166.25483 c -46.2739,16.06324 -74.971,59.47708 -101.7983,98.91312 -11.5332,16.92468 -24.8164,36.30699 -38.8605,55.24591 -57.6875,77.79527 -192.683,258.74751 -192.683,258.74751 l 188.5415,0 c 81.0473,-106.12131 162.1163,-212.2933 243.1635,-318.42729 l 2.7284,0 0,318.42729 98.3742,0 0,-417.13771 -133.8976,0 c -22.0988,0 -47.2522,-2.11559 -65.5682,4.23117 M 1020.1452,442.23104 C 987.92633,595.80735 828.98407,569.50822 697.7279,567.49398 l 0,-365.14752 c 155.94212,-2.16626 321.5042,-42.17236 322.4173,179.39404 l 0,60.49054 z m -256.83813,-280.20738 -306.01437,0 0,442.61341 390.71401,0 c 174.23649,0 222.08649,-42.27371 256.55549,-115.38175 21.7293,-46.08683 17.1204,-178.72263 4.4568,-204.80641 -37.2083,-76.64246 -69.862,-122.42525 -345.71193,-122.42525"
     style="fill:#ff0000;fill-rule:evenodd;stroke:none"
     id="path3480" /><path
     inkscape:connector-curvature="0"
     d="m 540.01397,827.72363 37.73004,0 c 20.09877,0 34.33857,-3.28105 42.7194,-9.80517 8.38083,-6.53677 12.57668,-17.3554 12.57668,-32.43053 0,-13.40293 -3.47843,-23.58815 -10.44614,-30.50497 -6.95686,-6.91682 -17.25081,-10.36257 -30.84928,-10.36257 l -51.7307,0 0,83.10324 z m -29.14266,24.60161 0,-131.11563 80.64509,0 c 22.99021,0 40.65408,5.612 53.02422,16.874 12.35928,11.24935 18.54436,27.19858 18.54436,47.87305 0,12.22479 -2.41316,23.2461 -7.2286,33.06393 -4.81544,9.79251 -11.62011,17.50742 -20.39226,23.14476 -5.44591,3.53443 -12.21797,6.11874 -20.32705,7.74026 -8.08734,1.60886 -18.45739,2.41963 -31.09928,2.41963 l -73.16648,0 z"
     style="fill:#ffffff;fill-opacity:1;fill-rule:nonzero;stroke:none"
     id="path3382" /><path
     inkscape:connector-curvature="0"
     d="m 810.5593,721.20961 29.14267,0 0,131.11563 -29.14267,0 0,-131.11563 z"
     style="fill:#ffffff;fill-opacity:1;fill-rule:nonzero;stroke:none"
     id="path3386" /><path
     inkscape:connector-curvature="0"
     d="m 1115.2149,744.62039 -91.0369,0 0,83.10324 91.0369,0 0,-29.16214 -47.6109,0 0,-22.41 76.0253,0 0,45.25072 c 0,11.95876 -2.1523,20.07907 -6.4242,24.42425 -4.272,4.34518 -12.5223,6.49878 -24.7077,6.49878 l -86.428,0 c -12.1527,0 -20.3705,-2.1536 -24.6316,-6.49878 -4.2719,-4.34518 -6.41332,-12.46549 -6.41332,-24.42425 l 0,-69.20625 c 0,-11.88275 2.14142,-20.02838 6.41332,-24.41157 4.2611,-4.37052 12.4789,-6.57478 24.6316,-6.57478 l 86.428,0 c 12.0332,0 20.2292,2.15359 24.599,6.44809 4.348,4.30718 6.5329,12.07277 6.5329,23.30945 l 0,2.96435 -28.4144,5.35865 0,-14.66976 z"
     style="fill:#ffffff;fill-opacity:1;fill-rule:nonzero;stroke:none"
     id="path3390" /><path
     inkscape:connector-curvature="0"
     d="m 1299.3431,721.20961 29.1427,0 0,131.11563 -29.1427,0 0,-131.11563 z"
     style="fill:#ffffff;fill-opacity:1;fill-rule:nonzero;stroke:none"
     id="path3394" /><path
     inkscape:connector-curvature="0"
     d="m 1544.8111,744.62039 0,107.70485 -29.1426,0 0,-107.70485 -57.5462,0 0,-23.41078 144.4198,0 0,23.41078 -57.731,0 z"
     style="fill:#ffffff;fill-opacity:1;fill-rule:nonzero;stroke:none"
     id="path3398" /><path
     inkscape:connector-curvature="0"
     d="m 1764.4628,799.95499 54.9048,0 -27.0339,-53.30769 -27.8709,53.30769 z m -56.0788,52.37025 70.9056,-131.11563 28.1099,0 71.8404,131.11563 -32.7189,0 -15.0659,-28.76943 -79.4277,0 -14.5876,28.76943 -29.0558,0 z"
     style="fill:#ffffff;fill-opacity:1;fill-rule:nonzero;stroke:none"
     id="path3402" /><path
     inkscape:connector-curvature="0"
     d="m 2013.4744,852.32524 0,-131.11563 29.1428,0 0,106.51402 93.9392,0 0,24.60161 -123.082,0 z"
     style="fill:#ffffff;fill-opacity:1;fill-rule:nonzero;stroke:none"
     id="path3406" /><path
     inkscape:connector-curvature="0"
     d="m 2519.6287,744.62039 0,107.70485 -29.1427,0 0,-107.70485 -57.5461,0 0,-23.41078 144.4198,0 0,23.41078 -57.731,0 z"
     style="fill:#ffffff;fill-opacity:1;fill-rule:nonzero;stroke:none"
     id="path3410" /><path
     inkscape:connector-curvature="0"
     d="m 2739.2912,799.95499 54.9048,0 -27.0339,-53.30769 -27.8709,53.30769 z m -56.0788,52.37025 70.9056,-131.11563 28.11,0 71.8403,131.11563 -32.708,0 -15.0659,-28.76943 -79.4386,0 -14.5876,28.76943 -29.0558,0 z"
     style="fill:#ffffff;fill-opacity:1;fill-rule:nonzero;stroke:none"
     id="path3414" /><path
     inkscape:connector-curvature="0"
     d="m 2988.3029,721.20961 29.1427,0 0,131.11563 -29.1427,0 0,-131.11563 z"
     style="fill:#f9f9f9;fill-opacity:1;fill-rule:nonzero;stroke:none"
     id="path3418" /><path
     inkscape:connector-curvature="0"
     d="m 3175.4965,852.32524 0,-131.11563 29.1317,0 0,106.51402 93.9393,0 0,24.60161 -123.071,0 z"
     style="fill:#ffffff;fill-opacity:1;fill-rule:nonzero;stroke:none"
     id="path3422" /><path
     inkscape:connector-curvature="0"
     d="m 3435.3457,852.32524 0,-131.11563 29.1535,0 0,106.51402 93.9174,0 0,24.60161 -123.0709,0 z"
     style="fill:#ffffff;fill-opacity:1;fill-rule:nonzero;stroke:none"
     id="path3426" /><path
     inkscape:connector-curvature="0"
     d="m 3695.2165,721.20961 29.1319,0 0,131.11563 -29.1319,0 0,-131.11563 z"
     style="fill:#ffffff;fill-opacity:1;fill-rule:nonzero;stroke:none"
     id="path3430" /><path
     inkscape:connector-curvature="0"
     d="m 3999.8504,744.62039 -91.026,0 0,83.10324 91.026,0 0,-29.16214 -47.5892,0 0,-22.41 75.9927,0 0,45.25072 c 0,11.95876 -2.1197,20.07907 -6.4133,24.42425 -4.2611,4.34518 -12.5006,6.49878 -24.7077,6.49878 l -86.428,0 c -12.1418,0 -20.3596,-2.1536 -24.6098,-6.49878 -4.2937,-4.34518 -6.3916,-12.46549 -6.3916,-24.42425 l 0,-69.20625 c 0,-11.88275 2.0979,-20.02838 6.3916,-24.41157 4.2502,-4.37052 12.468,-6.57478 24.6098,-6.57478 l 86.428,0 c 12.0549,0 20.2618,2.15359 24.5773,6.44809 4.3806,4.30718 6.5437,12.07277 6.5437,23.30945 l 0,2.96435 -28.4035,5.35865 0,-14.66976 z"
     style="fill:#ffffff;fill-opacity:1;fill-rule:nonzero;stroke:none"
     id="path3434" /><path
     inkscape:connector-curvature="0"
     d="m 4183.9895,852.32524 0,-131.11563 29.1427,0 0,50.78672 91.1999,0 0,-50.78672 29.3275,0 0,131.11563 -29.3275,0 0,-56.52541 -91.1999,0 0,56.52541 -29.1427,0 z"
     style="fill:#ffffff;fill-opacity:1;fill-rule:nonzero;stroke:none"
     id="path3438" /><path
     inkscape:connector-curvature="0"
     d="m 4549.898,744.62039 0,107.70485 -29.1318,0 0,-107.70485 -57.5353,0 0,-23.41078 144.409,0 0,23.41078 -57.7419,0 z"
     style="fill:#ffffff;fill-opacity:1;fill-rule:nonzero;stroke:none"
     id="path3442" /><path
     inkscape:connector-curvature="0"
     d="m 4846.1402,744.21501 -82.1451,0 0,28.17403 78.2536,0 c 12.2071,0 20.4901,2.17892 24.7838,6.56212 4.2936,4.38318 6.4459,12.52882 6.4459,24.42424 l 0,18.03948 c 0,11.85741 -2.1523,19.97772 -6.4459,24.34824 -4.2937,4.37052 -12.5767,6.56212 -24.7838,6.56212 l -77.5689,0 c -12.2288,0 -20.5227,-2.1916 -24.8163,-6.56212 -4.3372,-4.37052 -6.4894,-12.49083 -6.4894,-24.34824 l 0,-3.5851 25.7077,-5.574 0,15.46785 88.6889,0 0,-29.94757 -78.232,0 c -12.1853,0 -20.4031,-2.17892 -24.6859,-6.58745 -4.2719,-4.34518 -6.4025,-12.50349 -6.4025,-24.38624 l 0,-14.51773 c 0,-11.93342 2.1306,-20.09172 6.4025,-24.48758 4.2828,-4.38319 12.5006,-6.58745 24.6859,-6.58745 l 71.2643,0 c 11.7614,0 19.8923,2.11558 24.3489,6.34675 4.4676,4.23117 6.6852,11.73074 6.6852,22.49869 l 0,2.71098 -25.6969,6.32142 0,-14.87244 z"
     style="fill:#ffffff;fill-opacity:1;fill-rule:nonzero;stroke:none"
     id="path3446" /></svg>
